<svg width="1369" height="224" viewBox="0 0 1369 224" fill="none" xmlns="http://www.w3.org/2000/svg">
<path d="M0 156.8C0 146.4 1.8624 137.333 5.58719 129.6C9.31199 121.6 14.101 115.067 19.9543 110C26.0736 104.667 32.858 100.667 40.3076 98C48.0233 95.3333 55.872 94 63.8537 94C71.3033 94 78.2207 94.9333 84.6061 96.8C90.9915 98.6667 96.5787 101.467 101.368 105.2C106.157 108.667 109.882 113.067 112.542 118.4C115.203 123.467 116.533 129.467 116.533 136.4C116.533 143.067 115.203 149.2 112.542 154.8C109.882 160.133 106.29 164.667 101.767 168.4C97.2438 172.133 91.9227 175.067 85.8034 177.2C79.9501 179.067 73.6978 180 67.0463 180C59.3307 180 52.9453 178.133 47.8902 174.4C42.8352 170.4 40.3076 164.8 40.3076 157.6C40.3076 154.667 40.7067 152.267 41.5049 150.4C42.3031 148.533 43.3673 146.933 44.6976 145.6C45.7618 144 47.0921 142.8 48.6884 142L49.4866 143.2C49.2205 143.467 48.0233 144.667 45.8948 146.8C44.0324 148.933 43.1012 152.533 43.1012 157.6C43.1012 164.533 45.3627 169.6 49.8857 172.8C54.4086 175.733 60.1289 177.2 67.0463 177.2C73.4317 177.2 79.418 176.267 85.0052 174.4C90.5924 172.533 95.3814 169.867 99.3723 166.4C103.629 162.933 106.955 158.667 109.349 153.6C112.01 148.533 113.34 142.8 113.34 136.4C113.34 123.6 108.684 113.867 99.3723 107.2C90.0603 100.267 78.2207 96.8 63.8537 96.8C56.138 96.8 48.5554 98.1333 41.1058 100.8C33.9223 103.2 27.4039 106.933 21.5506 112C15.9634 117.067 11.4404 123.333 7.98171 130.8C4.52297 138.267 2.7936 146.933 2.7936 156.8C2.7936 165.333 4.38994 173.2 7.58262 180.4C10.7753 187.6 15.1652 193.733 20.7524 198.8C26.3396 203.867 32.9911 207.867 40.7067 210.8C48.4224 213.467 56.9362 214.8 66.2482 214.8C78.7529 214.8 89.7942 211.867 99.3723 206C108.95 199.867 117.464 192 124.914 182.4C132.629 172.8 139.547 162.133 145.666 150.4C151.785 138.4 157.506 126.4 162.827 114.4C170.809 96.8 179.322 81.4667 188.368 68.4C197.68 55.0667 207.923 44.1333 219.098 35.6C211.648 34 204.199 32.2667 196.749 30.4C189.299 28.5333 181.451 26.9333 173.203 25.6C165.221 24 156.574 22.8 147.262 22C138.217 20.9333 128.239 20.4 117.331 20.4C98.7071 20.4 84.6061 24.2667 75.0281 32C65.7161 39.7333 61.0601 48.8 61.0601 59.2C61.0601 66.9333 63.5876 72.8 68.6427 76.8C73.9638 80.8 80.6153 82.8 88.597 82.8C97.1108 82.8 104.294 80.8 110.148 76.8C116.001 72.5333 118.927 67.2 118.927 60.8C118.927 57.8667 118.129 55.6 116.533 54C115.203 52.1333 112.808 51.2 109.349 51.2C107.221 51.2 105.492 51.6 104.161 52.4C102.831 52.9333 101.634 53.4667 100.57 54C99.5053 55.0667 98.7071 56.1333 98.175 57.2L96.9778 56C97.7759 54.6667 98.7071 53.4667 99.7714 52.4C102.166 50 105.359 48.8 109.349 48.8C113.074 48.8 116.001 49.8667 118.129 52C120.258 54.1333 121.322 57.0667 121.322 60.8C121.322 68.2667 117.73 74.6667 110.547 80C103.363 85.0667 93.7851 87.6 81.8125 87.6C75.9593 87.6 70.3721 86.8 65.0509 85.2C59.7298 83.3333 54.9408 80.8 50.6838 77.6C46.693 74.4 43.5003 70.5333 41.1058 66C38.7113 61.2 37.514 55.8667 37.514 50C37.514 42.2667 39.3764 35.3333 43.1012 29.2C46.826 23.0667 51.8811 17.8667 58.2665 13.6C64.6518 9.06665 72.1014 5.73332 80.6152 3.6C89.3951 1.2 98.7071 0 108.551 0C119.194 0 129.437 1.06667 139.281 3.20001C149.391 5.06667 159.235 7.6 168.813 10.8C178.391 13.7333 187.836 16.9333 197.148 20.4C206.726 23.8667 216.304 27.2 225.882 30.4C244.24 18.4 265.658 12.4 290.135 12.4C294.658 12.4 299.048 12.8 303.305 13.6C307.828 14.1333 311.819 15.0667 315.277 16.4C319.002 17.4667 321.929 18.9333 324.057 20.8C326.452 22.6667 327.649 24.9333 327.649 27.6C327.649 30.2667 326.452 32.6667 324.057 34.8C321.929 36.9333 319.002 38.6667 315.277 40C311.553 41.3333 307.296 42.4 302.507 43.2C297.718 44 292.796 44.4 287.741 44.4C277.364 44.4 267.653 43.8667 258.607 42.8C249.827 41.4667 241.181 40 232.667 38.4C223.621 47.7333 215.772 59.4667 209.121 73.6C202.735 87.7333 196.749 103.867 191.162 122C184.244 143.333 176.396 161.6 167.616 176.8C158.836 191.733 147.263 203.2 132.895 211.2C152.318 207.2 168.547 200.667 181.584 191.6C194.621 182.267 205.263 169.333 213.511 152.8L215.905 148L218.699 149.2L216.304 154C207.258 172.133 195.286 186 180.387 195.6C165.487 205.2 146.464 211.867 123.317 215.6C110.281 221.2 94.7163 224 76.6244 224C64.3858 224 53.4774 222.133 43.8994 218.4C34.5874 214.933 26.6057 210.133 19.9543 204C13.5689 197.867 8.64685 190.8 5.18811 182.8C1.72937 174.533 0 165.867 0 156.8ZM287.741 41.6C292.264 41.6 296.786 41.3333 301.309 40.8C305.832 40 309.823 39.0667 313.282 38C316.741 36.6667 319.534 35.2 321.663 33.6C323.791 31.7333 324.856 29.7333 324.856 27.6C324.856 25.2 323.791 23.2 321.663 21.6C319.534 20 316.741 18.8 313.282 18C310.089 16.9333 306.365 16.1333 302.108 15.6C298.117 15.0667 294.126 14.8 290.135 14.8C278.961 14.8 269.117 16.5333 260.603 20C252.089 23.2 244.373 27.8667 237.456 34C245.438 36.1333 253.552 38 261.8 39.6C270.314 40.9333 278.961 41.6 287.741 41.6Z" fill="#545BF1"/>
<path d="M265.71 111.2C265.71 108.8 264.912 107.2 263.315 106.4C261.985 105.333 260.655 104.8 259.324 104.8C255.6 104.8 251.742 106.4 247.751 109.6C243.76 112.533 239.902 116.4 236.177 121.2C232.719 125.733 229.393 130.533 226.2 135.6C223.274 140.667 220.746 145.2 218.618 149.2L216.223 154L213.43 152.8L215.824 148C217.687 144.267 220.214 139.6 223.407 134C226.865 128.4 230.723 123.067 234.98 118C239.503 112.933 244.292 108.667 249.347 105.2C254.668 101.467 260.123 99.6 265.71 99.6C270.765 99.6 274.623 101.2 277.283 104.4C280.21 107.333 281.673 111.333 281.673 116.4C281.673 123.333 278.747 130.933 272.893 139.2C267.04 147.467 260.522 155.6 253.338 163.6C246.421 171.6 240.035 179.2 234.182 186.4C228.329 193.6 225.402 199.6 225.402 204.4C225.402 208.667 228.329 210.8 234.182 210.8C242.962 210.8 250.678 206.8 257.329 198.8C264.246 190.533 270.366 181.2 275.687 170.8C279.678 162.8 283.536 154.8 287.26 146.8C290.985 138.533 294.577 131.067 298.036 124.4C301.761 117.467 305.618 111.867 309.609 107.6C313.6 103.333 317.99 101.2 322.779 101.2C328.1 101.2 331.692 102.667 333.554 105.6C335.417 108.533 336.348 111.467 336.348 114.4C336.348 120 333.288 126.267 327.169 133.2C321.316 140.133 314.797 147.467 307.614 155.2C300.43 162.933 293.779 170.933 287.66 179.2C281.806 187.467 278.88 195.733 278.88 204C278.88 206.133 279.678 208 281.274 209.6C282.87 211.2 285.132 212 288.059 212C295.242 212 302.293 209.733 309.21 205.2C316.128 200.667 322.247 194.533 327.568 186.8C333.155 178.8 337.545 169.6 340.738 159.2C343.931 148.533 345.527 137.333 345.527 125.6C345.527 119.467 346.059 114.533 347.123 110.8C348.187 107.067 349.385 104.133 350.715 102C352.311 99.8667 353.908 98.4 355.504 97.6C357.366 96.8 358.963 96.4 360.293 96.4C368.541 96.4 372.665 101.333 372.665 111.2C372.665 118.667 370.669 127.467 366.678 137.6C362.954 147.733 358.431 156.8 353.109 164.8C357.366 165.333 361.224 164.667 364.683 162.8C368.408 160.667 371.334 157.333 373.463 152.8L375.857 148L378.651 149.2L376.256 154C373.862 159.067 370.669 162.8 366.678 165.2C362.688 167.6 357.366 168.533 350.715 168C346.724 174.4 342.201 180.533 337.146 186.4C332.091 192 326.77 197.067 321.183 201.6C315.595 205.867 310.008 209.333 304.421 212C298.834 214.4 293.38 215.6 288.059 215.6C283.004 215.6 278.88 214.4 275.687 212C272.494 209.333 270.898 205.333 270.898 200C270.898 197.333 271.164 194.133 271.696 190.4C272.494 186.667 273.558 182.8 274.889 178.8C272.228 183.6 269.302 188.267 266.109 192.8C262.916 197.333 259.324 201.333 255.334 204.8C251.609 208 247.618 210.667 243.361 212.8C239.104 214.933 234.448 216 229.393 216C224.072 216 219.549 214.4 215.824 211.2C212.365 207.733 210.636 203.333 210.636 198C210.636 188.4 213.43 179.333 219.017 170.8C224.87 162.267 231.255 154.4 238.173 147.2C245.09 139.733 251.343 133.067 256.93 127.2C262.783 121.067 265.71 115.733 265.71 111.2Z" fill="#545BF1"/>
<path d="M362.036 190C362.036 178.8 364.297 167.733 368.82 156.8C373.609 145.6 379.463 135.733 386.38 127.2C393.564 118.4 401.412 111.333 409.926 106C418.44 100.667 426.555 98 434.27 98C439.591 98 443.715 99.3333 446.642 102C449.569 104.4 451.032 108.4 451.032 114C451.032 122.533 448.504 130.267 443.449 137.2C438.394 143.867 432.009 149.733 424.293 154.8C416.844 159.867 408.463 163.867 399.151 166.8C390.105 169.733 381.325 171.6 372.811 172.4C370.151 179.6 368.82 186.933 368.82 194.4C368.82 201.067 370.417 205.733 373.609 208.4C376.802 211.067 380.527 212.4 384.784 212.4C391.169 212.4 397.555 210.267 403.94 206C410.325 201.733 416.178 196.533 421.5 190.4C427.087 184 432.009 177.467 436.266 170.8C440.789 163.867 444.381 157.867 447.041 152.8L449.436 148L452.229 149.2L449.835 154C447.174 159.6 443.449 166 438.66 173.2C433.871 180.4 428.417 187.333 422.298 194C416.445 200.4 410.059 205.867 403.142 210.4C396.224 214.667 389.174 216.8 381.99 216.8C376.403 216.8 371.614 214.933 367.623 211.2C363.898 207.467 362.036 200.4 362.036 190ZM424.293 140C424.293 135.467 421.5 133.2 415.912 133.2C409.261 133.2 401.811 136.533 393.564 143.2C385.316 149.6 378.664 158.4 373.609 169.6C388.775 168 401.013 164.4 410.325 158.8C419.637 153.2 424.293 146.933 424.293 140Z" fill="#545BF1"/>
<path d="M505.545 93.2C505.545 88.1333 504.746 84.9333 503.15 83.6C501.82 82.2667 500.489 81.6 499.159 81.6C495.168 81.6 490.778 84.4 485.989 90C481.2 95.6 476.544 102.267 472.021 110C467.764 117.467 463.774 124.933 460.049 132.4C456.59 139.867 453.93 145.467 452.067 149.2L449.673 154L446.879 152.8L449.273 148C451.136 144.267 453.929 138.533 457.654 130.8C461.379 123.067 465.503 115.2 470.026 107.2C474.815 99.2 479.87 92.2667 485.191 86.4C490.512 80.2667 495.567 77.2 500.356 77.2C503.017 77.2 505.145 77.8667 506.742 79.2C508.338 80.5333 509.535 82.1333 510.334 84C511.132 85.8667 511.664 87.8667 511.93 90C512.196 91.8667 512.329 93.6 512.329 95.2C512.329 104.533 510.467 114.4 506.742 124.8C503.017 134.933 499.159 143.867 495.168 151.6C497.563 148.4 501.155 144 505.944 138.4C510.733 132.533 515.788 126.8 521.109 121.2C526.696 115.6 532.283 110.8 537.87 106.8C543.458 102.533 548.38 100.4 552.637 100.4C557.692 100.4 561.417 102.133 563.811 105.6C566.206 109.067 567.403 113.467 567.403 118.8C567.403 128.4 564.21 137.6 557.825 146.4C551.705 154.933 544.788 162.933 537.072 170.4C529.623 177.6 522.705 184.133 516.32 190C510.201 195.867 507.141 201.067 507.141 205.6C507.141 207.733 507.806 209.2 509.136 210C510.467 210.533 511.93 210.8 513.526 210.8C518.315 210.8 523.503 208.8 529.091 204.8C534.944 200.533 540.531 195.467 545.852 189.6C551.439 183.467 556.494 177.067 561.017 170.4C565.54 163.733 569.132 157.867 571.793 152.8L574.187 148L576.981 149.2L574.586 154C571.926 159.067 568.201 165.2 563.412 172.4C558.623 179.6 553.169 186.533 547.049 193.2C540.93 199.867 534.412 205.6 527.494 210.4C520.577 214.933 513.792 217.2 507.141 217.2C499.691 217.2 494.503 215.467 491.577 212C488.916 208.267 487.586 203.867 487.586 198.8C487.586 194 489.182 189.067 492.375 184C495.833 178.667 500.09 173.333 505.145 168C510.201 162.667 515.655 157.467 521.508 152.4C527.361 147.067 532.815 142 537.87 137.2C542.926 132.133 547.049 127.467 550.242 123.2C553.701 118.667 555.43 114.533 555.43 110.8C555.43 108.4 554.765 106.8 553.435 106C552.371 105.2 551.04 104.8 549.444 104.8C545.719 104.8 540.664 107.6 534.279 113.2C527.893 118.533 521.508 124.8 515.123 132C509.003 138.933 503.283 145.867 497.962 152.8C492.907 159.467 489.714 164 488.384 166.4C484.127 174.133 480.003 181.333 476.012 188C472.287 194.667 468.696 200.533 465.237 205.6C461.778 210.4 458.319 214.133 454.861 216.8C451.668 219.467 448.475 220.8 445.283 220.8C440.494 220.8 437.168 219.467 435.305 216.8C433.177 214.133 432.113 211.067 432.113 207.6C432.113 204.4 433.842 200.4 437.301 195.6C441.026 190.8 445.549 185.467 450.87 179.6C456.457 173.467 462.443 166.933 468.829 160C475.214 153.067 481.067 146 486.388 138.8C491.976 131.333 496.499 123.733 499.957 116C503.682 108.267 505.545 100.667 505.545 93.2Z" fill="#545BF1"/>
<path d="M556.419 203.6C556.419 196.133 558.414 186.667 562.405 175.2C566.396 163.467 571.318 152.133 577.171 141.2C583.29 130.267 589.676 120.933 596.327 113.2C603.245 105.2 609.497 101.2 615.084 101.2C619.607 101.2 622.534 102.533 623.864 105.2C625.46 107.6 626.258 110.267 626.258 113.2C626.258 117.2 624.662 121.6 621.469 126.4C618.277 130.933 614.286 135.6 609.497 140.4C604.974 145.2 599.919 150.267 594.332 155.6C589.011 160.667 583.955 165.867 579.166 171.2C574.643 176.533 570.786 182 567.593 187.6C564.4 193.2 562.804 198.8 562.804 204.4C562.804 208.133 563.469 210.533 564.799 211.6C566.396 212.4 568.125 212.8 569.987 212.8C575.309 212.8 580.63 210.667 585.951 206.4C591.538 201.867 596.859 196.533 601.914 190.4C606.969 184.267 611.625 177.733 615.882 170.8C620.139 163.867 623.598 157.867 626.258 152.8L628.653 148L631.447 149.2L629.052 154C626.391 159.067 622.8 165.2 618.277 172.4C614.02 179.333 609.098 186.133 603.511 192.8C598.19 199.467 592.469 205.2 586.35 210C580.231 214.533 573.978 216.8 567.593 216.8C563.868 216.8 561.075 215.6 559.212 213.2C557.35 210.533 556.419 207.333 556.419 203.6ZM625.46 67.6C625.46 63.0667 627.057 58.6667 630.249 54.4C633.708 49.8667 638.497 47.6 644.616 47.6C648.607 47.6 651.401 48.9333 652.997 51.6C654.86 54 655.791 56.5333 655.791 59.2C655.791 63.7333 654.061 68.1333 650.603 72.4C647.144 76.4 642.754 78.4 637.433 78.4C633.442 78.4 630.515 77.3333 628.653 75.2C626.791 73.0667 625.726 70.5333 625.46 67.6Z" fill="#545BF1"/>
<path d="M713.209 156.8C713.209 146.4 715.072 137.333 718.796 129.6C722.521 121.6 727.31 115.067 733.163 110C739.283 104.667 746.067 100.667 753.517 98C761.232 95.3333 769.081 94 777.063 94C784.513 94 791.43 94.9333 797.815 96.8C804.201 98.6667 809.788 101.467 814.577 105.2C819.366 108.667 823.091 113.067 825.751 118.4C828.412 123.467 829.742 129.467 829.742 136.4C829.742 143.067 828.412 149.2 825.751 154.8C823.091 160.133 819.499 164.667 814.976 168.4C810.453 172.133 805.132 175.067 799.013 177.2C793.159 179.067 786.907 180 780.256 180C772.54 180 766.155 178.133 761.099 174.4C756.044 170.4 753.517 164.8 753.517 157.6C753.517 154.667 753.916 152.267 754.714 150.4C755.512 148.533 756.576 146.933 757.907 145.6C758.971 144 760.301 142.8 761.898 142L762.696 143.2C762.43 143.467 761.233 144.667 759.104 146.8C757.242 148.933 756.31 152.533 756.31 157.6C756.31 164.533 758.572 169.6 763.095 172.8C767.618 175.733 773.338 177.2 780.256 177.2C786.641 177.2 792.627 176.267 798.214 174.4C803.802 172.533 808.591 169.867 812.581 166.4C816.838 162.933 820.164 158.667 822.559 153.6C825.219 148.533 826.549 142.8 826.549 136.4C826.549 123.6 821.893 113.867 812.581 107.2C803.27 100.267 791.43 96.8 777.063 96.8C769.347 96.8 761.765 98.1333 754.315 100.8C747.131 103.2 740.613 106.933 734.76 112C729.173 117.067 724.65 123.333 721.191 130.8C717.732 138.267 716.003 146.933 716.003 156.8C716.003 165.333 717.599 173.2 720.792 180.4C723.985 187.6 728.374 193.733 733.962 198.8C739.549 203.867 746.2 207.867 753.916 210.8C761.632 213.467 770.145 214.8 779.457 214.8C791.962 214.8 803.003 211.867 812.581 206C822.16 199.867 830.673 192 838.123 182.4C845.839 172.8 852.756 162.133 858.875 150.4C864.995 138.4 870.715 126.4 876.036 114.4C884.018 96.8 892.532 81.4667 901.578 68.4C910.89 55.0667 921.133 44.1333 932.307 35.6C924.857 34 917.408 32.2667 909.958 30.4C902.509 28.5333 894.66 26.9333 886.412 25.6C878.431 24 869.784 22.8 860.472 22C851.426 20.9333 841.449 20.4 830.54 20.4C811.916 20.4 797.815 24.2667 788.237 32C778.925 39.7333 774.269 48.8 774.269 59.2C774.269 66.9333 776.797 72.8 781.852 76.8C787.173 80.8 793.825 82.8 801.806 82.8C810.32 82.8 817.504 80.8 823.357 76.8C829.21 72.5333 832.137 67.2 832.137 60.8C832.137 57.8667 831.339 55.6 829.742 54C828.412 52.1333 826.017 51.2 822.559 51.2C820.43 51.2 818.701 51.6 817.37 52.4C816.04 52.9333 814.843 53.4667 813.779 54C812.715 55.0667 811.916 56.1333 811.384 57.2L810.187 56C810.985 54.6667 811.916 53.4667 812.981 52.4C815.375 50 818.568 48.8 822.559 48.8C826.283 48.8 829.21 49.8667 831.339 52C833.467 54.1333 834.531 57.0667 834.531 60.8C834.531 68.2667 830.939 74.6667 823.756 80C816.572 85.0667 806.994 87.6 795.022 87.6C789.168 87.6 783.581 86.8 778.26 85.2C772.939 83.3333 768.15 80.8 763.893 77.6C759.902 74.4 756.71 70.5333 754.315 66C751.92 61.2 750.723 55.8667 750.723 50C750.723 42.2667 752.586 35.3333 756.31 29.2C760.035 23.0667 765.09 17.8667 771.476 13.6C777.861 9.06665 785.311 5.73332 793.825 3.6C802.604 1.2 811.916 0 821.76 0C832.403 0 842.646 1.06667 852.49 3.20001C862.6 5.06667 872.444 7.6 882.022 10.8C891.6 13.7333 901.045 16.9333 910.357 20.4C919.935 23.8667 929.513 27.2 939.092 30.4C957.45 18.4 978.867 12.4 1003.34 12.4C1007.87 12.4 1012.26 12.8 1016.51 13.6C1021.04 14.1333 1025.03 15.0667 1028.49 16.4C1032.21 17.4667 1035.14 18.9333 1037.27 20.8C1039.66 22.6667 1040.86 24.9333 1040.86 27.6C1040.86 30.2667 1039.66 32.6667 1037.27 34.8C1035.14 36.9333 1032.21 38.6667 1028.49 40C1024.76 41.3333 1020.5 42.4 1015.72 43.2C1010.93 44 1006 44.4 1000.95 44.4C990.574 44.4 980.862 43.8667 971.817 42.8C963.037 41.4667 954.39 40 945.876 38.4C936.83 47.7333 928.981 59.4667 922.33 73.6C915.945 87.7333 909.958 103.867 904.371 122C897.454 143.333 889.605 161.6 880.825 176.8C872.045 191.733 860.472 203.2 846.105 211.2C865.527 207.2 881.756 200.667 894.793 191.6C907.83 182.267 918.472 169.333 926.72 152.8L929.114 148L931.908 149.2L929.513 154C920.468 172.133 908.495 186 893.596 195.6C878.697 205.2 859.674 211.867 836.527 215.6C823.49 221.2 807.925 224 789.834 224C777.595 224 766.687 222.133 757.109 218.4C747.797 214.933 739.815 210.133 733.163 204C726.778 197.867 721.856 190.8 718.397 182.8C714.939 174.533 713.209 165.867 713.209 156.8ZM1000.95 41.6C1005.47 41.6 1010 41.3333 1014.52 40.8C1019.04 40 1023.03 39.0667 1026.49 38C1029.95 36.6667 1032.74 35.2 1034.87 33.6C1037 31.7333 1038.06 29.7333 1038.06 27.6C1038.06 25.2 1037 23.2 1034.87 21.6C1032.74 20 1029.95 18.8 1026.49 18C1023.3 16.9333 1019.57 16.1333 1015.32 15.6C1011.33 15.0667 1007.34 14.8 1003.34 14.8C992.17 14.8 982.326 16.5333 973.812 20C965.298 23.2 957.583 27.8667 950.665 34C958.647 36.1333 966.761 38 975.009 39.6C983.523 40.9333 992.17 41.6 1000.95 41.6Z" fill="#545BF1"/>
<path d="M978.919 111.2C978.919 108.8 978.121 107.2 976.524 106.4C975.194 105.333 973.864 104.8 972.534 104.8C968.809 104.8 964.951 106.4 960.96 109.6C956.969 112.533 953.112 116.4 949.387 121.2C945.928 125.733 942.602 130.533 939.41 135.6C936.483 140.667 933.955 145.2 931.827 149.2L929.432 154L926.639 152.8L929.033 148C930.896 144.267 933.423 139.6 936.616 134C940.075 128.4 943.933 123.067 948.189 118C952.712 112.933 957.501 108.667 962.557 105.2C967.878 101.467 973.332 99.6 978.919 99.6C983.974 99.6 987.832 101.2 990.492 104.4C993.419 107.333 994.882 111.333 994.882 116.4C994.882 123.333 991.956 130.933 986.103 139.2C980.249 147.467 973.731 155.6 966.547 163.6C959.63 171.6 953.245 179.2 947.391 186.4C941.538 193.6 938.611 199.6 938.611 204.4C938.611 208.667 941.538 210.8 947.391 210.8C956.171 210.8 963.887 206.8 970.538 198.8C977.456 190.533 983.575 181.2 988.896 170.8C992.887 162.8 996.745 154.8 1000.47 146.8C1004.19 138.533 1007.79 131.067 1011.24 124.4C1014.97 117.467 1018.83 111.867 1022.82 107.6C1026.81 103.333 1031.2 101.2 1035.99 101.2C1041.31 101.2 1044.9 102.667 1046.76 105.6C1048.63 108.533 1049.56 111.467 1049.56 114.4C1049.56 120 1046.5 126.267 1040.38 133.2C1034.52 140.133 1028.01 147.467 1020.82 155.2C1013.64 162.933 1006.99 170.933 1000.87 179.2C995.015 187.467 992.089 195.733 992.089 204C992.089 206.133 992.887 208 994.483 209.6C996.08 211.2 998.341 212 1001.27 212C1008.45 212 1015.5 209.733 1022.42 205.2C1029.34 200.667 1035.46 194.533 1040.78 186.8C1046.36 178.8 1050.75 169.6 1053.95 159.2C1057.14 148.533 1058.74 137.333 1058.74 125.6C1058.74 119.467 1059.27 114.533 1060.33 110.8C1061.4 107.067 1062.59 104.133 1063.92 102C1065.52 99.8667 1067.12 98.4 1068.71 97.6C1070.58 96.8 1072.17 96.4 1073.5 96.4C1081.75 96.4 1085.87 101.333 1085.87 111.2C1085.87 118.667 1083.88 127.467 1079.89 137.6C1076.16 147.733 1071.64 156.8 1066.32 164.8C1070.58 165.333 1074.43 164.667 1077.89 162.8C1081.62 160.667 1084.54 157.333 1086.67 152.8L1089.07 148L1091.86 149.2L1089.47 154C1087.07 159.067 1083.88 162.8 1079.89 165.2C1075.9 167.6 1070.58 168.533 1063.92 168C1059.93 174.4 1055.41 180.533 1050.36 186.4C1045.3 192 1039.98 197.067 1034.39 201.6C1028.8 205.867 1023.22 209.333 1017.63 212C1012.04 214.4 1006.59 215.6 1001.27 215.6C996.213 215.6 992.089 214.4 988.896 212C985.703 209.333 984.107 205.333 984.107 200C984.107 197.333 984.373 194.133 984.905 190.4C985.703 186.667 986.768 182.8 988.098 178.8C985.437 183.6 982.511 188.267 979.318 192.8C976.125 197.333 972.534 201.333 968.543 204.8C964.818 208 960.827 210.667 956.57 212.8C952.313 214.933 947.657 216 942.602 216C937.281 216 932.758 214.4 929.033 211.2C925.575 207.733 923.845 203.333 923.845 198C923.845 188.4 926.639 179.333 932.226 170.8C938.079 162.267 944.465 154.4 951.382 147.2C958.3 139.733 964.552 133.067 970.139 127.2C975.992 121.067 978.919 115.733 978.919 111.2Z" fill="#545BF1"/>
<path d="M1075.25 190C1075.25 178.8 1077.51 167.733 1082.03 156.8C1086.82 145.6 1092.67 135.733 1099.59 127.2C1106.77 118.4 1114.62 111.333 1123.14 106C1131.65 100.667 1139.76 98 1147.48 98C1152.8 98 1156.92 99.3333 1159.85 102C1162.78 104.4 1164.24 108.4 1164.24 114C1164.24 122.533 1161.71 130.267 1156.66 137.2C1151.6 143.867 1145.22 149.733 1137.5 154.8C1130.05 159.867 1121.67 163.867 1112.36 166.8C1103.31 169.733 1094.53 171.6 1086.02 172.4C1083.36 179.6 1082.03 186.933 1082.03 194.4C1082.03 201.067 1083.63 205.733 1086.82 208.4C1090.01 211.067 1093.74 212.4 1097.99 212.4C1104.38 212.4 1110.76 210.267 1117.15 206C1123.53 201.733 1129.39 196.533 1134.71 190.4C1140.3 184 1145.22 177.467 1149.47 170.8C1154 163.867 1157.59 157.867 1160.25 152.8L1162.64 148L1165.44 149.2L1163.04 154C1160.38 159.6 1156.66 166 1151.87 173.2C1147.08 180.4 1141.63 187.333 1135.51 194C1129.65 200.4 1123.27 205.867 1116.35 210.4C1109.43 214.667 1102.38 216.8 1095.2 216.8C1089.61 216.8 1084.82 214.933 1080.83 211.2C1077.11 207.467 1075.25 200.4 1075.25 190ZM1137.5 140C1137.5 135.467 1134.71 133.2 1129.12 133.2C1122.47 133.2 1115.02 136.533 1106.77 143.2C1098.53 149.6 1091.87 158.4 1086.82 169.6C1101.98 168 1114.22 164.4 1123.53 158.8C1132.85 153.2 1137.5 146.933 1137.5 140Z" fill="#545BF1"/>
<path d="M1218.75 93.2C1218.75 88.1333 1217.96 84.9333 1216.36 83.6C1215.03 82.2667 1213.7 81.6 1212.37 81.6C1208.38 81.6 1203.99 84.4 1199.2 90C1194.41 95.6 1189.75 102.267 1185.23 110C1180.97 117.467 1176.98 124.933 1173.26 132.4C1169.8 139.867 1167.14 145.467 1165.28 149.2L1162.88 154L1160.09 152.8L1162.48 148C1164.35 144.267 1167.14 138.533 1170.86 130.8C1174.59 123.067 1178.71 115.2 1183.24 107.2C1188.02 99.2 1193.08 92.2667 1198.4 86.4C1203.72 80.2667 1208.78 77.2 1213.57 77.2C1216.23 77.2 1218.35 77.8667 1219.95 79.2C1221.55 80.5333 1222.74 82.1333 1223.54 84C1224.34 85.8667 1224.87 87.8667 1225.14 90C1225.41 91.8667 1225.54 93.6 1225.54 95.2C1225.54 104.533 1223.68 114.4 1219.95 124.8C1216.23 134.933 1212.37 143.867 1208.38 151.6C1210.77 148.4 1214.36 144 1219.15 138.4C1223.94 132.533 1229 126.8 1234.32 121.2C1239.91 115.6 1245.49 110.8 1251.08 106.8C1256.67 102.533 1261.59 100.4 1265.85 100.4C1270.9 100.4 1274.63 102.133 1277.02 105.6C1279.41 109.067 1280.61 113.467 1280.61 118.8C1280.61 128.4 1277.42 137.6 1271.03 146.4C1264.91 154.933 1258 162.933 1250.28 170.4C1242.83 177.6 1235.91 184.133 1229.53 190C1223.41 195.867 1220.35 201.067 1220.35 205.6C1220.35 207.733 1221.02 209.2 1222.35 210C1223.68 210.533 1225.14 210.8 1226.74 210.8C1231.52 210.8 1236.71 208.8 1242.3 204.8C1248.15 200.533 1253.74 195.467 1259.06 189.6C1264.65 183.467 1269.7 177.067 1274.23 170.4C1278.75 163.733 1282.34 157.867 1285 152.8L1287.4 148L1290.19 149.2L1287.8 154C1285.14 159.067 1281.41 165.2 1276.62 172.4C1271.83 179.6 1266.38 186.533 1260.26 193.2C1254.14 199.867 1247.62 205.6 1240.7 210.4C1233.79 214.933 1227 217.2 1220.35 217.2C1212.9 217.2 1207.71 215.467 1204.79 212C1202.13 208.267 1200.79 203.867 1200.79 198.8C1200.79 194 1202.39 189.067 1205.58 184C1209.04 178.667 1213.3 173.333 1218.35 168C1223.41 162.667 1228.86 157.467 1234.72 152.4C1240.57 147.067 1246.02 142 1251.08 137.2C1256.13 132.133 1260.26 127.467 1263.45 123.2C1266.91 118.667 1268.64 114.533 1268.64 110.8C1268.64 108.4 1267.97 106.8 1266.64 106C1265.58 105.2 1264.25 104.8 1262.65 104.8C1258.93 104.8 1253.87 107.6 1247.49 113.2C1241.1 118.533 1234.72 124.8 1228.33 132C1222.21 138.933 1216.49 145.867 1211.17 152.8C1206.12 159.467 1202.92 164 1201.59 166.4C1197.34 174.133 1193.21 181.333 1189.22 188C1185.5 194.667 1181.9 200.533 1178.45 205.6C1174.99 210.4 1171.53 214.133 1168.07 216.8C1164.88 219.467 1161.68 220.8 1158.49 220.8C1153.7 220.8 1150.38 219.467 1148.51 216.8C1146.39 214.133 1145.32 211.067 1145.32 207.6C1145.32 204.4 1147.05 200.4 1150.51 195.6C1154.23 190.8 1158.76 185.467 1164.08 179.6C1169.67 173.467 1175.65 166.933 1182.04 160C1188.42 153.067 1194.28 146 1199.6 138.8C1205.18 131.333 1209.71 123.733 1213.17 116C1216.89 108.267 1218.75 100.667 1218.75 93.2Z" fill="#545BF1"/>
<path d="M1269.63 203.6C1269.63 196.133 1271.62 186.667 1275.61 175.2C1279.6 163.467 1284.53 152.133 1290.38 141.2C1296.5 130.267 1302.88 120.933 1309.54 113.2C1316.45 105.2 1322.71 101.2 1328.29 101.2C1332.82 101.2 1335.74 102.533 1337.07 105.2C1338.67 107.6 1339.47 110.267 1339.47 113.2C1339.47 117.2 1337.87 121.6 1334.68 126.4C1331.49 130.933 1327.5 135.6 1322.71 140.4C1318.18 145.2 1313.13 150.267 1307.54 155.6C1302.22 160.667 1297.16 165.867 1292.38 171.2C1287.85 176.533 1283.99 182 1280.8 187.6C1277.61 193.2 1276.01 198.8 1276.01 204.4C1276.01 208.133 1276.68 210.533 1278.01 211.6C1279.6 212.4 1281.33 212.8 1283.2 212.8C1288.52 212.8 1293.84 210.667 1299.16 206.4C1304.75 201.867 1310.07 196.533 1315.12 190.4C1320.18 184.267 1324.83 177.733 1329.09 170.8C1333.35 163.867 1336.81 157.867 1339.47 152.8L1341.86 148L1344.66 149.2L1342.26 154C1339.6 159.067 1336.01 165.2 1331.49 172.4C1327.23 179.333 1322.31 186.133 1316.72 192.8C1311.4 199.467 1305.68 205.2 1299.56 210C1293.44 214.533 1287.19 216.8 1280.8 216.8C1277.08 216.8 1274.28 215.6 1272.42 213.2C1270.56 210.533 1269.63 207.333 1269.63 203.6ZM1338.67 67.6C1338.67 63.0667 1340.27 58.6667 1343.46 54.4C1346.92 49.8667 1351.71 47.6 1357.83 47.6C1361.82 47.6 1364.61 48.9333 1366.21 51.6C1368.07 54 1369 56.5333 1369 59.2C1369 63.7333 1367.27 68.1333 1363.81 72.4C1360.35 76.4 1355.96 78.4 1350.64 78.4C1346.65 78.4 1343.72 77.3333 1341.86 75.2C1340 73.0667 1338.94 70.5333 1338.67 67.6Z" fill="#545BF1"/>
</svg>
