<svg width="36" height="36" viewBox="0 0 36 36" fill="none" xmlns="http://www.w3.org/2000/svg">
<path d="M14.8198 21.1802V33.7102H12.53L12.5936 24.9964L1.65371 36L0 34.3463L11.0035 23.3427H2.28975V21.1802H14.8198Z" fill="#252525"/>
<path d="M20.9898 14.8198L20.9898 2.28979L23.2795 2.28979L23.2159 11.0036L34.1559 3.80024e-05L35.8096 1.65375L24.806 12.6573L33.5198 12.6573L33.5198 14.8198L20.9898 14.8198Z" fill="#252525"/>
<path d="M20.9893 21.1797L33.5193 21.1797L33.5193 23.4695L24.8055 23.4059L35.809 34.3458L34.1553 35.9995L23.1518 24.996L23.1518 33.7098L20.9893 33.7098L20.9893 21.1797Z" fill="#252525"/>
<path d="M14.8203 14.8198L2.29028 14.8198L2.29028 12.53L11.0041 12.5936L0.000526356 1.65371L1.65423 -5.75508e-07L12.6578 11.0035L12.6578 2.28975L14.8203 2.28975L14.8203 14.8198Z" fill="#252525"/>
</svg>
